<svg xmlns="http://www.w3.org/2000/svg" viewBox="0 0 1024 512"><defs><style>.cls-1{fill:#d05453;}.cls-2{fill:#4d6db5;}.cls-3{fill:#a6a6a6;}.cls-4{fill:#fff;}.cls-5{fill:#636466;}.cls-6{fill:#d9d9d9;}.cls-7{fill:#7689b5;}.cls-11,.cls-8{stroke:#000;}.cls-8{stroke-linecap:round;stroke-linejoin:round;stroke-width:0.9px;}.cls-9{fill:#d07d7d;}.cls-10,.cls-11{fill:none;stroke-miterlimit:10;}.cls-10{stroke:#d9d9d9;stroke-width:7.46px;}.cls-11{stroke-width:0.29px;opacity:0.2;}</style></defs><title>Artboard 1</title><g id="Layer_5" data-name="Layer 5"><rect class="cls-1" x="3" width="41.74" height="508.43"/><rect class="cls-2" x="3" width="69.05" height="50.17"/><rect class="cls-2" x="3" y="463.09" width="69.05" height="48.91"/><rect class="cls-2" x="979.26" y="1.49" width="41.74" height="508.43" transform="translate(2000.26 511.41) rotate(-180)"/><rect class="cls-1" x="951.96" y="1.49" width="69.05" height="50.17" transform="translate(1972.96 53.15) rotate(-180)"/><rect class="cls-1" x="951.96" y="463.09" width="69.05" height="48.91" transform="translate(1972.96 975.09) rotate(-180)"/><polygon class="cls-3" points="67.57 3.8 12.96 50.65 12.96 461.94 68.82 508.43 953.77 508.43 1011.6 462.12 1011.6 50.17 955.92 4.81 67.57 3.8"/><g id="null_zone" data-name="null zone"><path class="cls-4" d="M457.05,4.31V153.59h57.38V4.31Zm53.26,146.18H461.17V5.31h49.14Z"/><path class="cls-4" d="M511,4.31V153.59h57.38V4.31Zm4.12,1h49.14V150.49H515.1Z"/></g><g id="null_zone-2" data-name="null zone"><path class="cls-4" d="M514.43,508.43V359.34H457.05V508.43Zm-4.12-1H461.17v-145h49.14Z"/><path class="cls-4" d="M568.37,508.43V359.34H511V508.43Zm-53.26-146h49.14v145H515.1Z"/></g><rect x="510.31" y="2.84" width="4.79" height="153.97"/><rect x="510.31" y="355.72" width="4.79" height="152.71"/><polygon class="cls-5" points="309.8 200.85 281.45 200.85 282.76 198.17 263.43 198.17 264.38 200.85 235.68 200.85 235.68 145.71 309.8 145.71 309.8 200.85"/><polygon class="cls-5" points="788.98 200.85 760.63 200.85 761.94 198.17 742.61 198.17 743.56 200.85 714.86 200.85 714.86 145.71 788.98 145.71 788.98 200.85"/><polygon class="cls-5" points="549.25 173.25 522.4 173.25 522.31 170.95 503.04 170.95 503.04 173.53 475.13 173.25 475.13 118.11 549.25 118.11 549.25 173.25"/><polygon class="cls-5" points="309.8 312.09 281.45 312.09 282.76 314.77 263.43 314.77 264.38 312.09 235.68 312.09 235.68 367.23 309.8 367.23 309.8 312.09"/><polygon class="cls-5" points="788.98 312.09 760.63 312.09 761.94 314.77 742.61 314.77 743.56 312.09 714.86 312.09 714.86 367.23 788.98 367.23 788.98 312.09"/><polygon class="cls-5" points="549.25 339.69 522.4 339.69 522.22 342.38 502.88 342.38 502.35 339.69 475.13 339.69 475.13 394.83 549.25 394.83 549.25 339.69"/><g id="switch"><path class="cls-6" d="M230.49,138.37V373.71h85.76V138.37ZM313.2,250.83,289,251v3.7H257.16v1.49l-23.47-.28-.16-5.06V208.19H313.2Zm-79.67,10.45,24.17-.15v-3.7h31.87v-1.49l23.47.28.16,6.55v41.15H233.53Zm79.67-55.86H233.53v-64H313.2Zm0,165.47H233.53v-64H313.2Z"/><path class="cls-6" d="M257.16,205.51v100h31.91v-100Zm22.6,98.35H266.47V208.19h13.29Z"/><rect class="cls-6" x="259.98" y="304.46" width="6.67" height="7.94"/><rect class="cls-6" x="279.54" y="303.92" width="6.62" height="8.68"/><rect class="cls-6" x="263.32" y="308.89" width="19.27" height="5.89"/><rect class="cls-6" x="259.98" y="201.03" width="6.67" height="5.03"/><rect class="cls-6" x="279.54" y="200.9" width="6.62" height="5.5"/><rect class="cls-6" x="263.32" y="197.99" width="19.27" height="5.47"/></g><g id="switch-2" data-name="switch"><path class="cls-6" d="M709.82,138.37V373.71h85.76V138.37Zm82.71,112.46-24.17.15v3.7H736.5v1.49L713,255.89l-.16-5.06V208.19h79.67Zm-79.67,10.45,24.17-.15v-3.7H768.9v-1.49l23.47.28.16,6.55v41.15H712.86Zm79.67-55.86H712.86v-64h79.67Zm0,165.47H712.86v-64h79.67Z"/><path class="cls-6" d="M736.5,205.51v100h31.91v-100Zm22.6,98.35H745.8V208.19H759.1Z"/><rect class="cls-6" x="739.32" y="304.46" width="6.67" height="7.94"/><rect class="cls-6" x="758.87" y="303.92" width="6.62" height="8.68"/><rect class="cls-6" x="742.65" y="308.89" width="19.27" height="5.89"/><rect class="cls-6" x="739.32" y="201.03" width="6.67" height="5.03"/><rect class="cls-6" x="758.87" y="200.9" width="6.62" height="5.5"/><rect class="cls-6" x="742.65" y="197.99" width="19.27" height="5.47"/></g><path class="cls-6" d="M499.74,177.63V332h25.79V177.63ZM518,330.32H507.27v-150H518Z"/><rect class="cls-6" x="499.7" y="331.69" width="6.67" height="7.94"/><rect class="cls-6" x="481.72" y="238.21" width="18.03" height="34.69"/><rect class="cls-6" x="525.56" y="238.21" width="18.03" height="34.69"/><rect class="cls-5" x="495.54" y="243.19" width="33.79" height="26.05"/><rect class="cls-6" x="519.26" y="331.14" width="6.62" height="8.68"/><rect class="cls-6" x="503.04" y="336.12" width="19.27" height="5.89"/><rect class="cls-6" x="503.04" y="170.95" width="19.27" height="4.06"/><rect class="cls-6" x="499.7" y="173.53" width="6.67" height="7.94"/><rect class="cls-6" x="518.99" y="172.98" width="6.62" height="8.68"/><polygon class="cls-2" points="549.25 339.69 549.25 356.07 608.78 356.07 608.78 156.81 549.25 156.81 549.25 173.25 525.53 173.25 525.53 239.7 528.93 239.7 528.93 243.1 542.26 243.1 542 269.24 528.93 269.24 528.93 272.9 525.53 272.9 525.53 339.69 549.25 339.69"/><rect class="cls-2" x="529.33" y="246.17" width="9.41" height="20.03"/><polygon class="cls-7" points="607.29 156.81 549.97 156.81 549.52 173.1 525.53 173.1 525.54 176.14 588.13 176.3 607.29 156.81"/><polygon class="cls-7" points="607.29 355.39 549.97 355.39 549.52 339.1 525.53 339.1 525.54 336.06 588.13 335.91 607.29 355.39"/><polygon class="cls-7" points="608.78 353.9 589.63 334.42 589.63 177.79 608.78 158.3 608.78 353.9"/><path class="cls-2" d="M795.15,221.62v69.11h64.09V221.62Zm61,65.82h-61V224.9h61Z"/><path class="cls-2" d="M954.31,274.26V349h58.36V274.26Zm55.59,71.2H957.08V277.81h52.82Z"/><rect class="cls-2" x="549.25" y="153.59" width="159.65" height="3.22" transform="translate(1258.16 310.4) rotate(-180)"/><rect class="cls-2" x="549.25" y="355.72" width="159.65" height="3.22" transform="translate(1258.16 714.65) rotate(-180)"/><path d="M600.19,256.17a2.13,2.13,0,0,0,2.26,2H705.81a2,2,0,1,0,0-3.94H602.44A2.13,2.13,0,0,0,600.19,256.17Z"/><rect x="705.91" y="254.2" width="3.94" height="3.94" transform="translate(1415.75 512.35) rotate(-180)"/><rect class="cls-8" x="822.55" y="2.84" width="2.94" height="502"/><polygon class="cls-1" points="475.13 339.69 475.31 356.07 416.5 356.07 416.5 156.81 475.31 156.81 475.76 173.1 499.75 173.1 499.75 239.7 496.35 239.7 496.35 243.1 483.03 243.1 483.28 269.24 496.35 269.15 496.35 272.9 499.75 272.9 499.75 339.69 475.13 339.69"/><rect class="cls-1" x="486.13" y="246.17" width="9.41" height="20.03"/><polygon class="cls-9" points="417.99 156.81 475.31 156.81 475.76 173.1 499.75 173.1 499.74 176.14 437.15 176.3 417.99 156.81"/><polygon class="cls-9" points="417.99 355.39 475.31 355.39 475.76 339.1 499.75 339.1 499.74 336.06 437.15 335.91 417.99 355.39"/><polygon class="cls-9" points="416.5 353.9 435.66 334.42 435.66 177.79 416.5 158.3 416.5 353.9"/><path class="cls-1" d="M230.41,290.82V221.71H166.31v69.11Zm-61-65.82h61v62.54h-61Z"/><path class="cls-1" d="M70.72,238.71V164H12.36v74.75Zm-55.59-71.2H67.95v67.65H15.13Z"/><rect class="cls-8" x="199.43" y="2.84" width="3.66" height="502"/><rect class="cls-1" x="316.61" y="153.59" width="158.7" height="3.22"/><rect class="cls-1" x="316.61" y="355.72" width="158.52" height="3.22"/><path d="M424.49,256.17a2.13,2.13,0,0,1-2.26,2H318.87a2,2,0,1,1,0-3.94H422.24A2.13,2.13,0,0,1,424.49,256.17Z"/><rect x="316.24" y="254.2" width="3.73" height="3.94"/><polygon class="cls-10" points="67.57 3.8 12.96 50.65 12.96 461.94 68.82 508.43 953.77 508.43 1011.6 462.12 1011.6 50.17 955.92 4.81 67.57 3.8"/></g><g id="blank_grid" data-name="blank grid"><rect class="cls-11" x="960" width="64" height="64"/><rect class="cls-11" x="960" y="64" width="64" height="64"/><rect class="cls-11" x="960" y="128" width="64" height="64"/><rect class="cls-11" x="960" y="192" width="64" height="64"/><rect class="cls-11" x="960" y="255.94" width="64" height="64"/><rect class="cls-11" x="960" y="319.94" width="64" height="64"/><rect class="cls-11" x="960" y="383.94" width="64" height="64"/><rect class="cls-11" x="960" y="447.89" width="64" height="64"/><rect class="cls-11" x="896" width="64" height="64"/><rect class="cls-11" x="896" y="64" width="64" height="64"/><rect class="cls-11" x="896" y="128" width="64" height="64"/><rect class="cls-11" x="896" y="192" width="64" height="64"/><rect class="cls-11" x="896" y="255.94" width="64" height="64"/><rect class="cls-11" x="896" y="319.94" width="64" height="64"/><rect class="cls-11" x="896" y="383.94" width="64" height="64"/><rect class="cls-11" x="896" y="447.89" width="64" height="64"/><rect class="cls-11" x="832.41" width="64" height="64"/><rect class="cls-11" x="832.41" y="64" width="64" height="64"/><rect class="cls-11" x="832.41" y="128" width="64" height="64"/><rect class="cls-11" x="832.41" y="192" width="64" height="64"/><rect class="cls-11" x="832.41" y="255.94" width="64" height="64"/><rect class="cls-11" x="832.41" y="319.94" width="64" height="64"/><rect class="cls-11" x="832.41" y="383.94" width="64" height="64"/><rect class="cls-11" x="832.41" y="447.89" width="64" height="64"/><rect class="cls-11" x="768.41" width="64" height="64"/><rect class="cls-11" x="768.41" y="64" width="64" height="64"/><rect class="cls-11" x="768.41" y="128" width="64" height="64"/><rect class="cls-11" x="768.41" y="192" width="64" height="64"/><rect class="cls-11" x="768.41" y="255.94" width="64" height="64"/><rect class="cls-11" x="768.41" y="319.94" width="64" height="64"/><rect class="cls-11" x="768.41" y="383.94" width="64" height="64"/><rect class="cls-11" x="768.41" y="447.89" width="64" height="64"/><rect class="cls-11" x="704.69" width="64" height="64"/><rect class="cls-11" x="704.69" y="64" width="64" height="64"/><rect class="cls-11" x="704.69" y="128" width="64" height="64"/><rect class="cls-11" x="704.69" y="192" width="64" height="64"/><rect class="cls-11" x="704.69" y="255.94" width="64" height="64"/><rect class="cls-11" x="704.69" y="319.94" width="64" height="64"/><rect class="cls-11" x="704.69" y="383.94" width="64" height="64"/><rect class="cls-11" x="704.69" y="447.89" width="64" height="64"/><rect class="cls-11" x="640.69" width="64" height="64"/><rect class="cls-11" x="640.69" y="64" width="64" height="64"/><rect class="cls-11" x="640.69" y="128" width="64" height="64"/><rect class="cls-11" x="640.69" y="192" width="64" height="64"/><rect class="cls-11" x="640.69" y="255.94" width="64" height="64"/><rect class="cls-11" x="640.69" y="319.94" width="64" height="64"/><rect class="cls-11" x="640.69" y="383.94" width="64" height="64"/><rect class="cls-11" x="640.69" y="447.89" width="64" height="64"/><rect class="cls-11" x="577.1" width="64" height="64"/><rect class="cls-11" x="577.1" y="64" width="64" height="64"/><rect class="cls-11" x="577.1" y="128" width="64" height="64"/><rect class="cls-11" x="577.1" y="192" width="64" height="64"/><rect class="cls-11" x="577.1" y="255.94" width="64" height="64"/><rect class="cls-11" x="577.1" y="319.94" width="64" height="64"/><rect class="cls-11" x="577.1" y="383.94" width="64" height="64"/><rect class="cls-11" x="577.1" y="447.89" width="64" height="64"/><rect class="cls-11" x="513.1" width="64" height="64"/><rect class="cls-11" x="513.1" y="64" width="64" height="64"/><rect class="cls-11" x="513.1" y="128" width="64" height="64"/><rect class="cls-11" x="513.1" y="192" width="64" height="64"/><rect class="cls-11" x="513.1" y="255.94" width="64" height="64"/><rect class="cls-11" x="513.1" y="319.94" width="64" height="64"/><rect class="cls-11" x="513.1" y="383.94" width="64" height="64"/><rect class="cls-11" x="513.1" y="447.89" width="64" height="64"/><rect class="cls-11" x="448.62" width="64" height="64"/><rect class="cls-11" x="448.62" y="64" width="64" height="64"/><rect class="cls-11" x="448.62" y="128" width="64" height="64"/><rect class="cls-11" x="448.62" y="192" width="64" height="64"/><rect class="cls-11" x="448.62" y="255.94" width="64" height="64"/><rect class="cls-11" x="448.62" y="319.94" width="64" height="64"/><rect class="cls-11" x="448.62" y="383.94" width="64" height="64"/><rect class="cls-11" x="448.62" y="447.89" width="64" height="64"/><rect class="cls-11" x="384.62" width="64" height="64"/><rect class="cls-11" x="384.62" y="64" width="64" height="64"/><rect class="cls-11" x="384.62" y="128" width="64" height="64"/><rect class="cls-11" x="384.62" y="192" width="64" height="64"/><rect class="cls-11" x="384.62" y="255.94" width="64" height="64"/><rect class="cls-11" x="384.62" y="319.94" width="64" height="64"/><rect class="cls-11" x="384.62" y="383.94" width="64" height="64"/><rect class="cls-11" x="384.62" y="447.89" width="64" height="64"/><rect class="cls-11" x="321.02" width="64" height="64"/><rect class="cls-11" x="321.02" y="64" width="64" height="64"/><rect class="cls-11" x="321.02" y="128" width="64" height="64"/><rect class="cls-11" x="321.02" y="192" width="64" height="64"/><rect class="cls-11" x="321.02" y="255.94" width="64" height="64"/><rect class="cls-11" x="321.02" y="319.94" width="64" height="64"/><rect class="cls-11" x="321.02" y="383.94" width="64" height="64"/><rect class="cls-11" x="321.02" y="447.89" width="64" height="64"/><rect class="cls-11" x="257.02" width="64" height="64"/><rect class="cls-11" x="257.02" y="64" width="64" height="64"/><rect class="cls-11" x="257.02" y="128" width="64" height="64"/><rect class="cls-11" x="257.02" y="192" width="64" height="64"/><rect class="cls-11" x="257.02" y="255.94" width="64" height="64"/><rect class="cls-11" x="257.02" y="319.94" width="64" height="64"/><rect class="cls-11" x="257.02" y="383.94" width="64" height="64"/><rect class="cls-11" x="257.02" y="447.89" width="64" height="64"/><rect class="cls-11" x="193.3" width="64" height="64"/><rect class="cls-11" x="193.3" y="64" width="64" height="64"/><rect class="cls-11" x="193.3" y="128" width="64" height="64"/><rect class="cls-11" x="193.3" y="192" width="64" height="64"/><rect class="cls-11" x="193.3" y="255.94" width="64" height="64"/><rect class="cls-11" x="193.3" y="319.94" width="64" height="64"/><rect class="cls-11" x="193.3" y="383.94" width="64" height="64"/><rect class="cls-11" x="193.3" y="447.89" width="64" height="64"/><rect class="cls-11" x="129.3" width="64" height="64"/><rect class="cls-11" x="129.3" y="64" width="64" height="64"/><rect class="cls-11" x="129.3" y="128" width="64" height="64"/><rect class="cls-11" x="129.3" y="192" width="64" height="64"/><rect class="cls-11" x="129.3" y="255.94" width="64" height="64"/><rect class="cls-11" x="129.3" y="319.94" width="64" height="64"/><rect class="cls-11" x="129.3" y="383.94" width="64" height="64"/><rect class="cls-11" x="129.3" y="447.89" width="64" height="64"/><rect class="cls-11" x="65.71" width="64" height="64"/><rect class="cls-11" x="65.71" y="64" width="64" height="64"/><rect class="cls-11" x="65.71" y="128" width="64" height="64"/><rect class="cls-11" x="65.71" y="192" width="64" height="64"/><rect class="cls-11" x="65.71" y="255.94" width="64" height="64"/><rect class="cls-11" x="65.71" y="319.94" width="64" height="64"/><rect class="cls-11" x="65.71" y="383.94" width="64" height="64"/><rect class="cls-11" x="65.71" y="447.89" width="64" height="64"/><rect class="cls-11" x="1.71" width="64" height="64"/><rect class="cls-11" x="1.71" y="64" width="64" height="64"/><rect class="cls-11" x="1.71" y="128" width="64" height="64"/><rect class="cls-11" x="1.71" y="192" width="64" height="64"/><rect class="cls-11" x="1.71" y="255.94" width="64" height="64"/><rect class="cls-11" x="1.71" y="319.94" width="64" height="64"/><rect class="cls-11" x="1.71" y="383.94" width="64" height="64"/><rect class="cls-11" x="1.71" y="447.89" width="64" height="64"/></g></svg>